<svg width="30" height="30" viewBox="0 0 30 30" fill="none" xmlns="http://www.w3.org/2000/svg">
<g clip-path="url(#clip0)">
<path d="M25.7137 7.32102H24.0174V3.92849H22.3211V0.53595H15.3649L14.234 2.23222H6.94163V5.62475H5.24536V9.01729H3.54909V11.3048L0.156555 16.3936V29.4856H29.1062V16.3936L25.7137 11.3048V7.32102ZM8.63789 3.92849H15.1418L16.2726 2.23222H20.6249V3.92849H17.0611L15.9303 5.62475H8.63789V3.92849ZM6.94163 7.32102H16.8381L17.9689 5.62475H22.3211V7.32102H18.7574L17.6266 9.01729H6.94163V7.32102ZM5.24536 10.7136H18.5343L19.6652 9.01729H24.0174V15.8024H18.0345L17.4691 17.4986H11.7937L11.2282 15.8024H5.24536V10.7136ZM3.54909 14.363V15.8024H2.58942L3.54909 14.363ZM27.4099 27.7893H1.85282V17.4986H10.0055L10.5709 19.1949H18.6918L19.2572 17.4986H27.4099V27.7893ZM26.6733 15.8024H25.7137V14.363L26.6733 15.8024Z" fill="#000055"/>
<path d="M10.3342 20.8912H18.9286V22.5874H10.3342V20.8912Z" fill="#000055"/>
</g>
<defs>
<clipPath id="clip0">
<rect width="28.9496" height="28.9496" fill="white" transform="translate(0.156555 0.53595)"/>
</clipPath>
</defs>
</svg>
