<svg width="30" height="30" viewBox="0 0 30 30" fill="none" xmlns="http://www.w3.org/2000/svg">
<g clip-path="url(#clip0)">
<path d="M3.59176 2.96007C3.59176 3.2264 3.37582 3.44235 3.10948 3.44235C2.84314 3.44235 2.6272 3.2264 2.6272 2.96007C2.6272 2.69373 2.84314 2.47778 3.10948 2.47778C3.37582 2.47778 3.59176 2.69373 3.59176 2.96007Z" fill="#000055"/>
<path d="M5.52096 2.96007C5.52096 3.2264 5.30502 3.44235 5.03868 3.44235C4.77234 3.44235 4.5564 3.2264 4.5564 2.96007C4.5564 2.69373 4.77234 2.47778 5.03868 2.47778C5.30502 2.47778 5.52096 2.69373 5.52096 2.96007Z" fill="#000055"/>
<path d="M7.45004 2.96007C7.45004 3.2264 7.23409 3.44235 6.96776 3.44235C6.70142 3.44235 6.48547 3.2264 6.48547 2.96007C6.48547 2.69373 6.70142 2.47778 6.96776 2.47778C7.23409 2.47778 7.45004 2.69373 7.45004 2.96007Z" fill="#000055"/>
<path d="M10.3437 2.47778C10.0774 2.47778 9.86145 2.69373 9.86145 2.96007C9.86145 3.2264 10.0774 3.44235 10.3437 3.44235H22.4008C22.6671 3.44235 22.8831 3.2264 22.8831 2.96007C22.8831 2.69373 22.6671 2.47778 22.4008 2.47778H10.3437Z" fill="#000055"/>
<path d="M7.17029 24.1808H1.18038V5.37177H22.4008C22.6671 5.37177 22.8831 5.15583 22.8831 4.88949C22.8831 4.62315 22.6671 4.40721 22.4008 4.40721H1.18038V1.51351H23.8476V7.50342C23.8476 7.76976 24.0636 7.9857 24.3299 7.9857C24.5963 7.9857 24.8122 7.76976 24.8122 7.50342V1.03123C24.8122 0.764894 24.5963 0.54895 24.3299 0.54895H0.698102C0.431764 0.54895 0.21582 0.764894 0.21582 1.03123V24.6631C0.21582 24.9294 0.431764 25.1453 0.698102 25.1453H7.17029C7.43663 25.1453 7.65257 24.9294 7.65257 24.6631C7.65257 24.3967 7.43663 24.1808 7.17029 24.1808Z" fill="#000055"/>
<path d="M29.0129 27.296L26.3604 24.6628L27.9134 23.6259C28.0733 23.5214 28.1567 23.3323 28.1256 23.1436C28.0933 22.9557 27.9534 22.8045 27.7686 22.7577L21.2917 21.036C21.1259 20.9929 20.95 21.0407 20.8289 21.1618C20.7079 21.2828 20.6601 21.4587 20.7032 21.6245L22.4008 28.1014C22.4477 28.2863 22.5989 28.4261 22.7866 28.4584C22.9752 28.4895 23.1645 28.4061 23.2688 28.2462L24.33 26.6932L26.9825 29.3457C27.0734 29.4359 27.1968 29.4863 27.3249 29.4856C27.453 29.4863 27.5764 29.4359 27.6673 29.3457L29.0322 27.9808C29.121 27.8878 29.169 27.763 29.1653 27.6344C29.1617 27.5058 29.1069 27.3841 29.0129 27.296ZM27.3056 28.3232L24.5758 25.5937C24.4861 25.5044 24.3648 25.4543 24.2384 25.4538H24.1901C24.0469 25.4684 23.9179 25.5461 23.838 25.666L23.0663 26.8187L21.8463 22.1791L26.4859 23.3991L25.3331 24.1805C25.2133 24.2603 25.1356 24.3894 25.121 24.5326C25.1078 24.6755 25.1591 24.817 25.2609 24.9183L27.9904 27.6481L27.3056 28.3232Z" fill="#000055"/>
<path d="M20.2595 25.8732C19.2535 26.291 18.1834 26.534 17.0957 26.5919V22.2514C17.8088 22.2681 18.5204 22.3244 19.2274 22.4202C19.4937 22.4574 19.74 22.2719 19.7772 22.0055C19.8144 21.7389 19.6289 21.4929 19.3625 21.4556C18.6106 21.3572 17.8538 21.3009 17.0957 21.2868V17.4285H21.9185C21.894 18.1849 21.8201 18.939 21.6967 19.6857C21.6527 19.9521 21.8331 20.2036 22.0994 20.2476C22.3657 20.2914 22.6172 20.1112 22.6613 19.8447C22.7894 19.0452 22.8636 18.2379 22.8831 17.4285H26.2591C26.2089 18.5149 25.9741 19.5847 25.5646 20.5923C25.4648 20.8373 25.5809 21.1173 25.8251 21.2192C25.883 21.2439 25.9452 21.2571 26.0083 21.2578C26.2059 21.2581 26.3837 21.1377 26.4569 20.9541C26.9719 19.681 27.2324 18.3194 27.2236 16.9463C27.2248 14.4567 26.3469 12.0467 24.7446 10.1413C22.731 7.73228 19.7534 6.33889 16.6134 6.33606H16.2661C13.9241 6.41283 11.6726 7.26059 9.86148 8.74747C9.65496 8.91655 9.62482 9.22104 9.7939 9.42756C9.96321 9.63385 10.2675 9.66423 10.474 9.49491C11.3119 8.80564 12.2588 8.26118 13.2761 7.88417C12.4716 8.75948 11.8401 9.77891 11.4145 10.8888C10.5922 10.6554 9.7866 10.3672 9.00312 10.0255C8.81191 9.9447 8.59031 9.99509 8.45326 10.151C8.45326 10.151 8.429 10.151 8.41935 10.18C6.85899 12.0839 6.00676 14.4701 6.00794 16.9319C6.00817 19.3984 6.87148 21.787 8.44831 23.6838L8.48222 23.7222C10.4879 26.1454 13.4678 27.5506 16.6134 27.5565C17.9882 27.5574 19.3498 27.2887 20.6212 26.7655C20.7913 26.7085 20.9156 26.5618 20.9438 26.3847C20.9723 26.2076 20.9 26.0293 20.7564 25.9219C20.6128 25.8146 20.4213 25.796 20.2595 25.8732ZM16.1312 26.5486C14.5927 26.3025 13.2375 24.8606 12.3645 22.7384C13.6001 22.4478 14.8623 22.2843 16.1312 22.2514V26.5486ZM16.1312 21.2868C14.7484 21.3153 13.3724 21.4914 12.027 21.8124C11.5827 20.3922 11.3406 18.9164 11.3083 17.4285H16.1312V21.2868ZM6.99181 17.4285H10.3438C10.3739 19.0061 10.6273 20.5712 11.0962 22.0778C10.3814 22.2865 9.67945 22.5361 8.99347 22.8253C7.78871 21.2741 7.09001 19.3902 6.99181 17.4285ZM20.8334 11.1589C19.607 11.4457 18.3546 11.6073 17.0957 11.6412V7.3489C18.6198 7.6044 19.9604 9.05125 20.8334 11.1589ZM16.1312 16.464H11.3083C11.3385 14.9707 11.5822 13.4898 12.0318 12.0655C13.375 12.3912 14.7493 12.5723 16.1312 12.6057V16.464ZM17.0957 12.6057C18.4672 12.5763 19.8316 12.4016 21.1661 12.0848C21.614 13.5027 21.8575 14.9773 21.8896 16.464H17.0957V12.6057ZM26.2591 16.464H22.8831C22.8544 14.8883 22.6026 13.3247 22.1357 11.8197C22.8605 11.6115 23.5724 11.3602 24.2673 11.0673C25.4685 12.6196 26.1637 14.5035 26.2591 16.464ZM23.6065 10.2956C23.018 10.5322 22.4175 10.7383 21.8076 10.913C21.3847 9.79516 20.7493 8.76984 19.9364 7.89382C21.3185 8.40695 22.5654 9.22834 23.5825 10.2956H23.6065ZM16.1312 7.34395V11.6412C14.8623 11.6096 13.6003 11.4481 12.3645 11.1589C13.2375 9.03194 14.5927 7.59004 16.1312 7.34395ZM10.3438 16.464H6.96779C7.0674 14.5042 7.76233 12.6217 8.95956 11.0673C9.64719 11.3565 10.3511 11.6061 11.0672 11.8147C10.6073 13.3226 10.3638 14.8879 10.3438 16.464ZM9.64436 23.597C10.2237 23.3643 10.8145 23.1615 11.4145 22.9892C11.8387 24.0934 12.4669 25.1079 13.2664 25.9794C11.8933 25.4717 10.6544 24.6567 9.64436 23.597Z" fill="#000055"/>
<path d="M27.7446 12.3066C27.8185 12.4868 27.9935 12.6048 28.1882 12.6057C28.2516 12.6073 28.3142 12.5942 28.3714 12.5671C28.6156 12.4649 28.7317 12.1851 28.6319 11.9402C28.1355 10.7402 27.4589 9.62299 26.6255 8.62687C26.4487 8.46862 26.1828 8.46274 25.9989 8.61274C25.8152 8.76298 25.7679 9.02485 25.8877 9.22972C26.6585 10.1557 27.2846 11.1932 27.7446 12.3066Z" fill="#000055"/>
<path d="M6.5964 8.62689C4.65479 10.9646 3.59203 13.9075 3.5918 16.9463C3.5918 17.2126 3.80774 17.4285 4.07408 17.4285C4.34042 17.4285 4.55636 17.2126 4.55636 16.9463C4.55353 14.1279 5.53811 11.3977 7.33914 9.22975C7.50963 9.02464 7.48161 8.72015 7.2765 8.54965C7.07138 8.37916 6.7669 8.40742 6.5964 8.61253V8.62689Z" fill="#000055"/>
</g>
<defs>
<clipPath id="clip0">
<rect width="28.9496" height="28.9496" fill="white" transform="translate(0.21582 0.53595)"/>
</clipPath>
</defs>
</svg>
