<!DOCTYPE svg PUBLIC "-//W3C//DTD SVG 20010904//EN" "http://www.w3.org/TR/2001/REC-SVG-20010904/DTD/svg10.dtd">
<svg version="1.0" xmlns="http://www.w3.org/2000/svg" width="100px" height="100px" viewBox="0 0 12000 1380" preserveAspectRatio="xMidYMid meet">
<g fill="#000000" stroke="none">
</g>
<g fill="#2c4190" stroke="none">
<path d="M1778 1341 c-130 -42 -209 -134 -239 -280 -44 -209 -4 -411 103 -520 84 -85 176 -121 316 -121 260 0 396 137 428 430 5 50 -1 104 -24 215 -29 137 -138 248 -272 281 -81 20 -243 17 -312 -5z m271 -126 c43 -22 94 -86 115 -144 15 -43 17 -74 14 -199 -4 -135 -6 -151 -30 -197 -45 -87 -106 -125 -198 -125 -108 0 -192 79 -219 208 -15 72 -13 224 3 294 19 79 63 137 124 165 39 17 157 16 191 -2z"/>
<path d="M4015 1346 c-108 -26 -175 -96 -216 -226 -21 -65 -24 -95 -24 -215 1 -125 4 -149 28 -227 16 -48 34 -93 41 -100 6 -7 15 -20 18 -29 11 -28 94 -89 147 -109 83 -30 141 -34 238 -15 48 10 100 24 115 31 59 30 57 35 60 -218 l3 -233 70 -3 c38 -2 80 0 92 3 l23 5 -2 668 -3 667 -77 3 c-59 2 -78 0 -78 -10 0 -10 -2 -10 -9 1 -6 9 -11 -2 -15 -33 -4 -25 -10 -46 -13 -46 -3 0 -17 8 -31 19 -52 36 -108 59 -173 70 -81 14 -129 13 -194 -3z m266 -138 c35 -12 81 -32 102 -46 l37 -25 0 -258 0 -259 -24 -15 c-34 -23 -154 -55 -203 -55 -56 0 -115 24 -147 61 -68 76 -101 272 -71 429 8 42 42 113 64 134 60 57 140 69 242 34z"/>
<path d="M7256 1344 c-120 -37 -201 -123 -244 -259 -21 -66 -23 -302 -3 -360 42 -122 104 -208 182 -252 140 -80 379 -72 494 16 107 81 167 220 168 391 1 252 -107 420 -295 465 -81 19 -238 18 -302 -1z m255 -128 c46 -19 70 -42 104 -101 l30 -50 0 -170 c0 -165 -1 -172 -27 -220 -14 -27 -37 -60 -50 -72 -57 -54 -167 -69 -236 -34 -108 56 -150 167 -139 375 7 159 39 225 128 266 52 23 142 26 190 6z"/>
<path d="M9857 1350 c-62 -11 -123 -53 -150 -104 -21 -39 -22 -57 -27 -361 l-5 -320 -63 -3 -63 -3 3 -52 3 -52 50 -11 c87 -20 80 -9 132 -207 5 -21 41 -37 82 -37 15 0 32 -5 39 -12 9 -9 12 17 12 120 l0 132 135 0 135 0 0 60 0 60 -135 0 -135 0 1 288 c1 330 2 336 79 361 37 12 57 12 119 2 41 -7 80 -15 87 -18 13 -5 17 6 29 79 5 33 3 39 -22 51 -27 15 -183 38 -233 36 -14 -1 -47 -5 -73 -9z"/>
<path d="M10593 1345 c-176 -48 -273 -205 -273 -445 0 -302 158 -479 430 -481 185 -2 305 63 379 207 67 128 67 394 0 525 -52 104 -137 172 -244 195 -78 17 -226 16 -292 -1z m260 -135 c55 -26 101 -96 117 -178 14 -70 8 -266 -9 -323 -30 -97 -110 -158 -207 -159 -64 0 -110 19 -150 62 -67 71 -88 154 -82 324 6 162 37 230 125 274 53 26 149 26 206 0z"/>
<path d="M275 1338 c-2 -7 -25 -85 -49 -173 -25 -88 -57 -198 -71 -245 -13 -47 -34 -119 -46 -160 -11 -41 -29 -102 -39 -135 -11 -33 -24 -81 -29 -106 -6 -25 -13 -53 -17 -62 -5 -15 4 -17 89 -17 104 0 101 -2 113 67 3 16 14 62 25 103 27 98 69 259 75 285 2 11 6 31 9 45 4 14 8 36 11 50 12 65 46 186 54 194 11 11 25 -23 36 -80 7 -43 51 -217 83 -334 11 -41 32 -118 46 -170 14 -52 30 -110 36 -127 l11 -33 93 0 93 0 15 48 c9 26 27 88 42 137 14 50 39 133 55 185 25 82 60 210 90 329 19 76 42 54 61 -58 4 -30 15 -77 23 -105 8 -28 20 -78 26 -111 7 -33 18 -78 25 -100 6 -22 18 -65 24 -95 7 -30 17 -68 22 -85 5 -16 16 -56 25 -88 l15 -57 90 0 c57 0 89 4 89 11 0 6 -18 74 -41 152 -23 78 -49 171 -59 207 -10 36 -36 128 -59 204 -22 76 -41 146 -41 153 0 8 -6 29 -14 46 -8 18 -20 56 -26 85 l-12 52 -113 0 -112 0 -17 -57 c-10 -32 -28 -92 -41 -133 -21 -68 -63 -216 -80 -280 -62 -248 -80 -295 -96 -252 -4 9 -18 67 -33 127 -43 176 -104 411 -125 480 -5 17 -15 49 -21 73 l-11 42 -110 0 c-79 0 -111 -4 -114 -12z"/>
<path d="M2623 1344 c-10 -4 -13 -105 -13 -455 l0 -449 93 0 92 0 -3 70 c-3 58 -1 70 12 70 8 0 23 -8 33 -18 42 -41 115 -85 230 -135 38 -17 104 -14 116 5 14 21 -17 158 -42 189 -18 22 -48 27 -258 45 l-83 7 0 336 0 337 -82 1 c-46 1 -89 0 -95 -3z"/>
<path d="M3347 1344 c-4 -4 -7 -303 -7 -664 0 -497 3 -659 12 -668 13 -13 155 -17 175 -4 10 6 12 152 10 673 l-2 664 -90 3 c-50 1 -94 0 -98 -4z"/>
<path d="M5417 1343 c-4 -3 -7 -208 -7 -455 l0 -448 95 0 95 0 0 45 c0 33 4 45 14 45 8 0 18 -5 21 -10 11 -18 118 -67 183 -84 133 -34 248 -11 310 60 30 36 34 37 55 24 102 -64 274 -116 345 -105 163 26 220 78 242 221 6 41 9 198 8 389 l-3 320 -78 3 c-47 2 -84 -2 -92 -8 -11 -9 -14 -81 -18 -333 -2 -177 -7 -335 -11 -352 -11 -45 -42 -72 -98 -86 -66 -15 -165 1 -238 40 l-52 28 1 342 c2 295 0 343 -13 357 -12 11 -35 15 -96 13 l-80 -2 0 -334 c0 -351 -3 -377 -46 -415 -55 -47 -168 -41 -284 15 l-65 32 -5 350 c-3 193 -7 351 -8 353 -5 5 -169 1 -175 -5z"/>
<path d="M8060 895 l0 -455 90 0 90 0 0 34 c0 19 4 37 9 40 5 3 40 -10 78 -28 94 -47 233 -80 298 -72 58 8 132 34 158 56 10 8 31 35 45 60 l27 45 3 388 3 387 -95 0 -96 0 0 -338 c0 -334 0 -339 -23 -382 -16 -31 -33 -47 -57 -56 -71 -26 -171 -11 -282 42 l-58 28 -2 350 -3 351 -92 3 -93 3 0 -456z"/>
<path d="M9154 1333 c-4 -10 -9 -210 -10 -445 -2 -327 0 -428 9 -428 7 0 6 -4 -3 -10 -10 -7 16 -10 83 -10 l97 0 0 458 c0 299 -4 452 -10 442 -6 -10 -10 -11 -10 -2 0 8 -22 12 -74 12 -61 0 -75 -3 -82 -17z"/>
<path d="M11410 894 l0 -454 94 0 93 0 -5 70 c-6 82 4 88 59 39 47 -42 139 -95 207 -119 123 -43 147 -20 112 108 -12 45 -28 86 -35 92 -12 10 -89 21 -262 36 l-73 7 0 338 0 337 -95 0 -95 0 0 -454z"/>
<path d="M9168 268 c-74 -61 -59 -161 29 -194 40 -16 46 -16 86 0 44 16 77 57 77 94 0 39 -23 83 -51 97 -34 18 -120 20 -141 3z"/>
</g>
</svg>